<?xml version="1.0" encoding="utf-8"?>
<!-- Generator: Adobe Illustrator 16.0.0, SVG Export Plug-In . SVG Version: 6.00 Build 0)  -->
<!DOCTYPE svg PUBLIC "-//W3C//DTD SVG 1.1//EN" "http://www.w3.org/Graphics/SVG/1.1/DTD/svg11.dtd">
<svg version="1.1" id="Layer_1" xmlns="http://www.w3.org/2000/svg" xmlns:xlink="http://www.w3.org/1999/xlink" x="0px" y="0px"
	 width="372.4px" height="400px" viewBox="563.8 60 372.4 400" enable-background="new 563.8 60 372.4 400" xml:space="preserve">
<g>
	<polygon fill="#DD0031" points="750,60 750,60 750,60 563.8,126.4 592.2,372.6 750,460 750,460 750,460 907.8,372.6 936.2,126.4 	
		"/>
	<polygon fill="#C3002F" points="750,60 750,104.4 750,104.2 750,306.8 750,306.8 750,460 750,460 907.8,372.6 936.2,126.4 	"/>
	<path fill="#FFFFFF" d="M750,104.2l-116.4,261l0,0H677l0,0l23.4-58.4h98.8l23.399,58.4l0,0H866l0,0L750,104.2L750,104.2L750,104.2
		L750,104.2L750,104.2z M784,270.8h-68l34-81.8L784,270.8z"/>
</g>
</svg>
