<?xml version="1.0" encoding="utf-8"?>
<!-- Generator: Adobe Illustrator 16.0.0, SVG Export Plug-In . SVG Version: 6.00 Build 0)  -->
<!DOCTYPE svg PUBLIC "-//W3C//DTD SVG 1.1//EN" "http://www.w3.org/Graphics/SVG/1.1/DTD/svg11.dtd">
<svg version="1.1" id="Layer_1" xmlns="http://www.w3.org/2000/svg" xmlns:xlink="http://www.w3.org/1999/xlink" x="0px" y="0px"
	 width="453px" height="500px" viewBox="522.5 0 453 500" enable-background="new 522.5 0 453 500" xml:space="preserve">
<title>icon</title>
<path fill="#FFFFFF" d="M750,0l220.966,124.986v250.029L750,500L529.034,375.015V124.986L750,0z"/>
<path fill="#8ED6FB" d="M931.512,366.393l-174.203,98.55v-76.738l108.542-59.724L931.512,366.393L931.512,366.393z M943.445,355.602
	V149.538l-63.721,36.828v132.466L943.445,355.602L943.445,355.602z M567.803,366.393l174.203,98.55v-76.738L633.407,328.48
	L567.803,366.393z M555.869,355.602V149.538l63.721,36.828v132.466L555.869,355.602z M563.35,136.177L742.006,35.115v74.169
	l-114.479,62.978l-0.913,0.514L563.35,136.177z M935.966,136.177L757.309,35.115v74.169l114.479,62.921l0.914,0.514L935.966,136.177
	L935.966,136.177z"/>
<path fill="#1C78C0" d="M742.006,370.732l-107.113-58.925V195.158l107.113,61.836V370.732z M757.309,370.732l107.114-58.867V195.158
	l-107.114,61.836V370.732z M642.144,181.683l107.514-59.095l107.515,59.095l-107.515,62.065L642.144,181.683z"/>
</svg>
